<?xml version="1.0" encoding="utf-8"?>
<svg id="master-artboard" viewBox="0 0 1400 980" xmlns="http://www.w3.org/2000/svg" width="1400px" height="980px" version="1.1" style="shape-rendering:geometricPrecision; text-rendering:geometricPrecision; image-rendering:optimizeQuality; fill-rule:evenodd; clip-rule:evenodd"><g transform="matrix(40.833333333333336, 0, 0, 40.833333333333336, 209.99998676345785, 0)"><defs><style id="ee-google-fonts">@import url(https://fonts.googleapis.com/css?family=Libre+Baskerville:700,400,400italic);</style></defs><path class="a" d="M0,0H24V24H0Z" style="fill: none;"/><path class="b" d="M4,6H2V20a2.006,2.006,0,0,0,2,2H18V20H4Z" style="fill: rgb(15, 32, 67);"/><path class="a" d="M0,0H24V24H0Z" style="fill: none;"/><path class="b" d="M20,2H8A2.006,2.006,0,0,0,6,4V16a2.006,2.006,0,0,0,2,2H20a2.006,2.006,0,0,0,2-2V4A2.006,2.006,0,0,0,20,2Zm0,10-2.5-1.5L15,12V4h5Z" style="fill: rgb(15, 32, 67);"/></g><g transform="matrix(4.899999618530273, 0, 0, 4.899999618530273, 285.3061105498669, -118.2806762853036)"><g id="g-1" transform="matrix(1, 0, 0, 1, 0, 0)">
	<g id="g-2">
		<path class="st0" d="M58,49h100v100H58V49z" style="fill: rgb(15, 32, 67);"/>
	</g>
</g></g><path d="M 698.4263916015625 484.44000244140625 L 698.4263916015625 455.17999267578125 L 669.306396484375 455.17999267578125 L 669.306396484375 448.17999267578125 L 698.4263916015625 448.17999267578125 L 698.4263916015625 418.91998291015625 L 705.7064208984375 418.91998291015625 L 705.7064208984375 448.17999267578125 L 734.826416015625 448.17999267578125 L 734.826416015625 455.17999267578125 L 705.7064208984375 455.17999267578125 L 705.7064208984375 484.44000244140625 L 698.4263916015625 484.44000244140625 Z" transform="matrix(5.447030544281006, 0, 0, 5.447030544281006, -3033.5048828125, -2058.4169921875)" style="fill: rgb(255, 255, 255); white-space: pre; color: rgb(255, 255, 255);"/></svg>