<?xml version="1.0" encoding="utf-8"?>
<!-- Generator: Adobe Illustrator 24.1.0, SVG Export Plug-In . SVG Version: 6.00 Build 0)  -->
<svg version="1.1" id="Layer_1" xmlns="http://www.w3.org/2000/svg" xmlns:xlink="http://www.w3.org/1999/xlink" x="0px" y="0px"
	 viewBox="0 0 24 24" style="enable-background:new 0 0 24 24;" xml:space="preserve">
<style type="text/css">
	.st0{fill:none;}
	.st1{fill:#0F2043;}
</style>
<path class="st0" d="M0,0h24v24H0V0z"/>
<path class="st1" d="M18,16.1c-0.7,0-1.4,0.3-2,0.8l-7.1-4.2C9,12.5,9,12.2,9,12c0-0.2,0-0.5-0.1-0.7L16,7.2c1.2,1.1,3.1,1,4.2-0.2
	s1-3.1-0.2-4.2s-3.1-1-4.2,0.2C15.3,3.5,15,4.2,15,5c0,0.2,0,0.5,0.1,0.7L8,9.8C6.8,8.7,4.9,8.7,3.8,9.9s-1.1,3.1,0.1,4.2
	c1.2,1.1,2.9,1.1,4.1,0l7.1,4.2c-0.1,0.2-0.1,0.4-0.1,0.6c0,1.6,1.3,2.9,2.9,2.9s2.9-1.3,2.9-2.9S19.6,16.1,18,16.1L18,16.1z"/>
</svg>
